# xmcd
#
# Track frame offsets:
#  150
#  16496
#  30368
#
# Disc length: 600 seconds
#
# Revision: 0
# Processed by: cddbd v1.5.1PL2 Copyright (c) Steve Scherf et al.
# Submitted via: Collectorz.com_Music_Collector 6.9
#
DISCID=16025603
DTITLE=Gold the shark - Hello
DYEAR=2005
DGENRE=Pop
TTITLE0=Hello
TTITLE1=She's a surfer
TTITLE2=Absolute balloon
EXTD=
EXTT0=
EXTT1=
EXTT2=
PLAYORDER=
